<svg width="262" height="54" viewBox="0 0 262 54" fill="none" xmlns="http://www.w3.org/2000/svg">
<path d="M116.112 43.48C113.52 43.48 111.088 42.984 108.816 41.992C106.576 41 104.592 39.624 102.864 37.864C101.168 36.072 99.8401 34.024 98.8801 31.72C97.9201 29.384 97.4401 26.888 97.4401 24.232C97.4401 21.608 97.9041 19.144 98.8321 16.84C99.7921 14.504 101.12 12.456 102.816 10.696C104.544 8.936 106.528 7.56 108.768 6.568C111.04 5.544 113.488 5.032 116.112 5.032C118.416 5.032 120.512 5.368 122.4 6.04C124.288 6.712 126.112 7.784 127.872 9.256C128.16 9.48 128.32 9.752 128.352 10.072C128.416 10.36 128.384 10.648 128.256 10.936C128.128 11.192 127.936 11.384 127.68 11.512C127.616 11.768 127.456 11.96 127.2 12.088C126.944 12.216 126.64 12.264 126.288 12.232C125.968 12.2 125.648 12.056 125.328 11.8C124.08 10.712 122.72 9.912 121.248 9.4C119.776 8.856 118.064 8.584 116.112 8.584C114.032 8.584 112.08 9 110.256 9.832C108.464 10.664 106.88 11.8 105.504 13.24C104.128 14.68 103.04 16.344 102.24 18.232C101.472 20.12 101.088 22.12 101.088 24.232C101.088 26.408 101.472 28.44 102.24 30.328C103.04 32.216 104.128 33.88 105.504 35.32C106.88 36.76 108.464 37.896 110.256 38.728C112.08 39.528 114.032 39.928 116.112 39.928C117.872 39.928 119.536 39.64 121.104 39.064C122.672 38.488 124.16 37.656 125.568 36.568C125.952 36.248 126.352 36.12 126.768 36.184C127.216 36.248 127.6 36.44 127.92 36.76C128.24 37.08 128.4 37.496 128.4 38.008C128.4 38.264 128.368 38.504 128.304 38.728C128.24 38.92 128.096 39.128 127.872 39.352C126.24 40.856 124.416 41.928 122.4 42.568C120.384 43.176 118.288 43.48 116.112 43.48ZM128.4 38.008L124.752 37.24V27.592H117.264C116.72 27.592 116.272 27.432 115.92 27.112C115.568 26.792 115.392 26.392 115.392 25.912C115.392 25.432 115.568 25.048 115.92 24.76C116.272 24.44 116.72 24.28 117.264 24.28H126.528C127.072 24.28 127.52 24.456 127.872 24.808C128.224 25.128 128.4 25.56 128.4 26.104V38.008ZM144.554 43.24C142.09 43.24 139.882 42.664 137.93 41.512C135.978 40.328 134.426 38.728 133.274 36.712C132.154 34.696 131.594 32.424 131.594 29.896C131.594 27.336 132.17 25.048 133.322 23.032C134.506 21.016 136.106 19.432 138.122 18.28C140.138 17.096 142.41 16.504 144.938 16.504C147.466 16.504 149.722 17.096 151.706 18.28C153.722 19.432 155.306 21.016 156.458 23.032C157.642 25.048 158.25 27.336 158.282 29.896L156.794 31.048C156.794 33.352 156.25 35.432 155.162 37.288C154.106 39.112 152.65 40.568 150.794 41.656C148.97 42.712 146.89 43.24 144.554 43.24ZM144.938 39.88C146.794 39.88 148.442 39.448 149.882 38.584C151.354 37.72 152.506 36.536 153.338 35.032C154.202 33.496 154.634 31.784 154.634 29.896C154.634 27.976 154.202 26.264 153.338 24.76C152.506 23.256 151.354 22.072 149.882 21.208C148.442 20.312 146.794 19.864 144.938 19.864C143.114 19.864 141.466 20.312 139.994 21.208C138.522 22.072 137.354 23.256 136.49 24.76C135.626 26.264 135.194 27.976 135.194 29.896C135.194 31.784 135.626 33.496 136.49 35.032C137.354 36.536 138.522 37.72 139.994 38.584C141.466 39.448 143.114 39.88 144.938 39.88ZM156.41 43C155.866 43 155.418 42.84 155.066 42.52C154.714 42.168 154.538 41.72 154.538 41.176V32.968L155.45 29.176L158.282 29.896V41.176C158.282 41.72 158.106 42.168 157.754 42.52C157.402 42.84 156.954 43 156.41 43ZM175.022 43C173.326 43 171.806 42.6 170.462 41.8C169.15 41 168.11 39.912 167.342 38.536C166.574 37.128 166.19 35.528 166.19 33.736V10.264C166.19 9.72 166.35 9.272 166.67 8.92C167.022 8.568 167.47 8.392 168.014 8.392C168.558 8.392 169.006 8.568 169.358 8.92C169.71 9.272 169.886 9.72 169.886 10.264V33.736C169.886 35.368 170.366 36.712 171.326 37.768C172.286 38.792 173.518 39.304 175.022 39.304H176.318C176.83 39.304 177.246 39.48 177.566 39.832C177.886 40.184 178.046 40.632 178.046 41.176C178.046 41.72 177.854 42.168 177.47 42.52C177.086 42.84 176.606 43 176.03 43H175.022ZM163.07 20.92C162.59 20.92 162.19 20.776 161.87 20.488C161.55 20.168 161.39 19.784 161.39 19.336C161.39 18.856 161.55 18.472 161.87 18.184C162.19 17.864 162.59 17.704 163.07 17.704H175.31C175.79 17.704 176.19 17.864 176.51 18.184C176.83 18.472 176.99 18.856 176.99 19.336C176.99 19.784 176.83 20.168 176.51 20.488C176.19 20.776 175.79 20.92 175.31 20.92H163.07ZM185.215 32.296C184.639 32.296 184.175 32.12 183.823 31.768C183.503 31.416 183.343 30.968 183.343 30.424V7.384C183.343 6.808 183.503 6.36 183.823 6.04C184.175 5.688 184.639 5.512 185.215 5.512C185.759 5.512 186.191 5.688 186.511 6.04C186.863 6.36 187.039 6.808 187.039 7.384V30.424C187.039 30.968 186.863 31.416 186.511 31.768C186.191 32.12 185.759 32.296 185.215 32.296ZM205.855 43C205.311 43 204.863 42.824 204.511 42.472C204.159 42.12 203.983 41.688 203.983 41.176V28.696C203.983 26.712 203.599 25.08 202.831 23.8C202.095 22.52 201.071 21.56 199.759 20.92C198.479 20.28 197.023 19.96 195.391 19.96C193.823 19.96 192.399 20.264 191.119 20.872C189.871 21.48 188.879 22.312 188.143 23.368C187.407 24.424 187.039 25.624 187.039 26.968H184.399C184.463 24.952 185.007 23.16 186.031 21.592C187.055 19.992 188.415 18.744 190.111 17.848C191.807 16.92 193.695 16.456 195.775 16.456C198.047 16.456 200.079 16.936 201.871 17.896C203.663 18.824 205.071 20.2 206.095 22.024C207.151 23.848 207.679 26.072 207.679 28.696V41.176C207.679 41.688 207.503 42.12 207.151 42.472C206.799 42.824 206.367 43 205.855 43ZM185.215 43C184.639 43 184.175 42.84 183.823 42.52C183.503 42.168 183.343 41.72 183.343 41.176V18.616C183.343 18.04 183.503 17.592 183.823 17.272C184.175 16.92 184.639 16.744 185.215 16.744C185.759 16.744 186.191 16.92 186.511 17.272C186.863 17.592 187.039 18.04 187.039 18.616V41.176C187.039 41.72 186.863 42.168 186.511 42.52C186.191 42.84 185.759 43 185.215 43ZM227.011 43.24C224.419 43.24 222.115 42.68 220.099 41.56C218.115 40.408 216.547 38.824 215.395 36.808C214.275 34.792 213.715 32.488 213.715 29.896C213.715 27.272 214.243 24.968 215.299 22.984C216.387 20.968 217.875 19.384 219.763 18.232C221.651 17.08 223.827 16.504 226.291 16.504C228.723 16.504 230.835 17.064 232.627 18.184C234.451 19.272 235.859 20.792 236.851 22.744C237.843 24.696 238.339 26.92 238.339 29.416C238.339 29.928 238.179 30.344 237.859 30.664C237.539 30.952 237.123 31.096 236.611 31.096H216.211V28.024H236.995L234.931 29.512C234.963 27.656 234.627 25.992 233.923 24.52C233.219 23.048 232.211 21.896 230.899 21.064C229.619 20.232 228.083 19.816 226.291 19.816C224.467 19.816 222.867 20.248 221.491 21.112C220.115 21.976 219.043 23.176 218.275 24.712C217.539 26.216 217.171 27.944 217.171 29.896C217.171 31.848 217.587 33.576 218.419 35.08C219.283 36.584 220.451 37.768 221.923 38.632C223.395 39.496 225.091 39.928 227.011 39.928C228.163 39.928 229.315 39.736 230.467 39.352C231.651 38.936 232.595 38.424 233.299 37.816C233.651 37.528 234.051 37.384 234.499 37.384C234.947 37.352 235.331 37.464 235.651 37.72C236.067 38.104 236.275 38.52 236.275 38.968C236.307 39.416 236.131 39.8 235.747 40.12C234.691 41.016 233.347 41.768 231.715 42.376C230.083 42.952 228.515 43.24 227.011 43.24ZM245.408 26.824C245.504 24.84 246.016 23.064 246.944 21.496C247.904 19.928 249.136 18.696 250.64 17.8C252.176 16.904 253.872 16.456 255.728 16.456C257.2 16.456 258.336 16.664 259.136 17.08C259.936 17.496 260.24 18.104 260.048 18.904C259.92 19.384 259.696 19.704 259.376 19.864C259.088 20.024 258.72 20.088 258.272 20.056C257.856 20.024 257.376 19.992 256.832 19.96C255.04 19.8 253.44 19.992 252.032 20.536C250.656 21.048 249.552 21.848 248.72 22.936C247.92 24.024 247.52 25.32 247.52 26.824H245.408ZM245.696 43C245.12 43 244.672 42.84 244.352 42.52C244.032 42.2 243.872 41.752 243.872 41.176V18.568C243.872 17.992 244.032 17.544 244.352 17.224C244.672 16.904 245.12 16.744 245.696 16.744C246.272 16.744 246.72 16.904 247.04 17.224C247.36 17.544 247.52 17.992 247.52 18.568V41.176C247.52 41.752 247.36 42.2 247.04 42.52C246.72 42.84 246.272 43 245.696 43Z" fill="black"/>
<path d="M11.1888 1.03028H74.0355C75.3699 1.02892 76.6915 1.29076 77.9246 1.80079C79.1577 2.31082 80.2781 3.05904 81.2217 4.00261C82.1652 4.94619 82.9134 6.06658 83.4235 7.29968C83.9335 8.53278 84.1953 9.85436 84.194 11.1888V13.1154L95.6918 17.4013L84.194 21.3988V39.6655C84.1953 41 83.9335 42.3215 83.4235 43.5546C82.9134 44.7877 82.1652 45.9081 81.2217 46.8517C80.2781 47.7953 79.1577 48.5435 77.9246 49.0535C76.6915 49.5636 75.3699 49.8254 74.0355 49.824H11.1888C8.49457 49.824 5.91072 48.7538 4.00563 46.8487C2.10055 44.9436 1.03027 42.3597 1.03027 39.6655V11.1888C1.03027 8.49458 2.10055 5.91072 4.00563 4.00563C5.91072 2.10054 8.49457 1.03028 11.1888 1.03028Z" fill="white"/>
<path d="M74.0252 50.8234H11.1785C8.21899 50.818 5.38197 49.6413 3.28737 47.5506C1.19277 45.4598 0.0108855 42.625 0 39.6655V11.1888C0.00272792 8.22216 1.18242 5.37784 3.28013 3.28013C5.37784 1.18242 8.22216 0.00272792 11.1888 0H74.0355C77.0021 0.00272792 79.8464 1.18242 81.9441 3.28013C84.0418 5.37784 85.2215 8.22216 85.2243 11.1888V12.3942L96.0524 16.4329C96.2513 16.5051 96.4232 16.6367 96.5446 16.81C96.6661 16.9833 96.7312 17.1897 96.7312 17.4013C96.7312 17.6129 96.6661 17.8194 96.5446 17.9926C96.4232 18.1659 96.2513 18.2976 96.0524 18.3698L85.214 22.1509V39.6655C85.2031 42.6268 84.0198 45.4632 81.9229 47.5542C79.8261 49.6453 76.9865 50.8207 74.0252 50.8234ZM11.1785 2.06055C8.75835 2.06327 6.43814 3.02587 4.72685 4.73715C3.01557 6.44843 2.05298 8.76866 2.05025 11.1888V39.6655C2.05569 42.0848 3.01916 44.4035 4.72986 46.1142C6.44055 47.8248 8.75919 48.7883 11.1785 48.7938H74.0252C76.4453 48.791 78.7655 47.8284 80.4768 46.1172C82.1881 44.4059 83.1507 42.0857 83.1534 39.6655V21.4297C83.155 21.2155 83.2233 21.0071 83.3489 20.8335C83.4745 20.6599 83.651 20.5298 83.854 20.4612L92.6422 17.3704L83.8334 14.0838C83.6359 14.0125 83.465 13.8824 83.3434 13.7112C83.2219 13.54 83.1556 13.3357 83.1534 13.1257V11.1991C83.1534 8.77812 82.1917 6.45632 80.4798 4.74445C78.7679 3.03257 76.4461 2.07085 74.0252 2.07085L11.1785 2.06055Z" fill="#093F68"/>
<path d="M43.179 23.2533C43.5573 22.9635 43.8877 22.6158 44.1577 22.2231C44.4007 21.8908 44.5339 21.491 44.5389 21.0795C44.5473 20.6319 44.3937 20.1965 44.1062 19.8534C43.93 19.6682 43.7145 19.5249 43.4756 19.434C43.2367 19.343 42.9804 19.3068 42.7256 19.328C42.404 19.3224 42.0855 19.3921 41.7957 19.5317C41.5059 19.6712 41.2528 19.8767 41.0566 20.1316C40.5814 20.7527 40.3243 21.5132 40.3251 22.2952L32.4126 21.3885C32.533 19.9409 32.9616 18.5358 33.6695 17.2674C34.3092 16.1465 35.1676 15.1655 36.1937 14.3827C37.204 13.6123 38.3505 13.0391 39.573 12.693C40.8251 12.3294 42.1224 12.1456 43.4262 12.147C44.6422 12.1498 45.8533 12.3021 47.0322 12.6003C48.1682 12.8796 49.246 13.3575 50.2157 14.0118C51.152 14.6585 51.9275 15.5115 52.4823 16.505C53.0955 17.639 53.3977 18.9152 53.3581 20.2037C53.3737 21.1195 53.238 22.0315 52.9563 22.903C52.7195 23.6382 52.3721 24.3331 51.926 24.9636C51.4769 25.5651 50.962 26.1146 50.3909 26.6017C49.8178 27.0961 49.2194 27.5603 48.5982 27.9926L44.8995 30.5786H53.4096V37.5123H33.4223V31.0628L43.179 23.2533Z" fill="#093F68"/>
</svg>
