<svg width="1920" height="749" viewBox="0 0 1920 749" fill="none" xmlns="http://www.w3.org/2000/svg">
<g clip-path="url(#clip0_1_61)">
<rect width="1920" height="749" fill="white"/>
<rect width="1920" height="406" transform="translate(0 -33)" fill="#EBEADF"/>
<rect width="1920" height="374" transform="translate(0 372)" fill="#EBEADF"/>
<path fill-rule="evenodd" clip-rule="evenodd" d="M418.751 320.308C355.196 329.405 294.459 289.729 230.258 289.729C169.732 289.729 111.551 305.599 52.8381 320.308C-50.7077 346.248 -8.5391 409.81 -8.53908 326.316C-8.53906 242.823 -8.53906 240.252 -8.53906 153.316C-8.53906 77.7515 -8.5391 87.8165 -8.53908 13.8165C-8.53906 -215.684 -2.45236 8.44299 -8.53907 -75.1835C-7.20378 -56.8377 8.46037 -66.6836 8.46037 -66.6836L52.8381 -75.1835C52.8381 -75.1835 45.0857 -66.4359 157.461 -66.6835C237.234 -66.8593 365.461 -66.6834 365.461 -66.6834L509.961 -66.6834C589.037 -73.7539 534.884 -66.684 599.905 -66.6835C664.926 -66.683 689.461 -75.1835 675.961 -75.1835C699.461 -75.1841 685.35 -66.6836 732.96 -66.6836C748.46 13.8168 916.557 44.5666 880.176 140.542C844.866 233.694 692.738 200.647 599.905 236.814C537.419 261.158 485.134 310.805 418.751 320.308Z" fill="#0C7F5E"/>
<path fill-rule="evenodd" clip-rule="evenodd" d="M1616.46 100.799C1654.61 110.95 1694.53 96.4973 1733.38 103.532C1780.09 111.99 1834.53 111.952 1867.37 146.233C1899.9 180.198 1912.65 234.781 1903.25 280.866C1893.76 327.392 1820.1 344.749 1817.21 392.144C1813.44 453.706 1901.05 501.524 1886.11 561.364C1873.84 610.514 1802.21 615.303 1756.2 636.493C1710.79 657.404 1666.43 684.135 1616.46 685.541C1566.07 686.959 1519.68 663.206 1472.88 644.464C1423.62 624.734 1337.79 625.015 1333.3 572.137C1326.97 497.574 1422.48 453.419 1450.77 384.141C1460.75 359.704 1450.49 331.384 1441.8 306.459C1422.47 251.042 1363.69 207.199 1368.67 148.72C1373.01 97.8263 1415.03 41.8731 1465.17 32.1748C1520.23 21.5271 1562.27 86.3814 1616.46 100.799Z" fill="#FB673F"/>
<path d="M404 869C515.562 869 606 779.009 606 668C606 556.991 515.562 467 404 467C292.438 467 202 556.991 202 668C202 779.009 292.438 869 404 869Z" fill="#F1B20D"/>
</g>
<defs>
<clipPath id="clip0_1_61">
<rect width="1920" height="749" fill="white"/>
</clipPath>
</defs>
</svg>
